<?xml version="1.0" standalone="no"?>
<!DOCTYPE svg PUBLIC "-//W3C//DTD SVG 20010904//EN"
 "http://www.w3.org/TR/2001/REC-SVG-20010904/DTD/svg10.dtd">
<svg version="1.0" xmlns="http://www.w3.org/2000/svg"
 width="2016.000000pt" height="2016.000000pt" viewBox="0 0 2016.000000 2016.000000"
 preserveAspectRatio="xMidYMid meet">
<metadata>
Created by potrace 1.11, written by Peter Selinger 2001-2013
</metadata>
<g transform="translate(0.000000,2016.000000) scale(0.100000,-0.100000)"
fill="#000000" stroke="none">
<path d="M1637 13354 c-1 -1 -47 -5 -102 -8 -138 -9 -210 -18 -325 -41 -14 -3
-38 -8 -55 -11 -38 -7 -196 -51 -227 -63 -25 -10 -62 -22 -65 -22 -5 0 -119
-51 -183 -82 -174 -84 -367 -239 -470 -376 -80 -106 -142 -235 -180 -371 -7
-25 -16 -57 -20 -72 -12 -39 -12 -437 -1 -489 5 -24 12 -55 14 -69 7 -35 55
-161 68 -177 6 -7 9 -13 5 -13 -9 0 72 -141 124 -215 101 -144 339 -372 505
-486 28 -19 52 -36 55 -39 3 -3 79 -55 170 -115 299 -197 329 -217 351 -236
12 -10 25 -19 28 -19 3 0 26 -18 51 -40 24 -22 48 -40 53 -40 4 0 6 -4 3 -9
-3 -5 0 -11 8 -14 21 -8 64 -87 69 -127 6 -49 -17 -117 -49 -151 -27 -28 -99
-67 -137 -75 -110 -21 -363 -21 -557 1 -91 10 -156 17 -170 19 -8 2 -40 6 -70
11 -30 4 -64 9 -75 11 -21 4 -41 8 -140 25 -33 6 -69 12 -80 14 -11 2 -47 9
-80 15 -33 6 -81 17 -106 25 l-46 13 0 -675 c0 -655 1 -674 20 -684 10 -6 30
-13 44 -15 14 -3 54 -11 89 -20 35 -8 67 -13 71 -13 4 1 15 -1 23 -4 16 -6
106 -21 260 -42 77 -10 98 -13 160 -20 30 -3 66 -8 80 -11 14 -2 52 -7 85 -10
33 -3 76 -7 95 -9 194 -22 741 -21 915 0 17 2 54 6 83 9 46 5 114 16 197 32
126 25 218 52 370 112 45 18 230 106 260 125 176 108 357 283 442 427 42 71
73 131 73 140 0 6 9 29 19 53 30 65 69 203 77 272 3 22 9 65 13 95 8 66 7 253
-3 330 -11 82 -46 229 -57 236 -5 3 -7 9 -4 13 7 13 -109 238 -171 331 -131
197 -317 383 -553 555 -53 38 -102 75 -109 82 -7 7 -17 13 -21 13 -4 0 -16 8
-27 18 -11 9 -42 33 -69 52 -28 19 -56 40 -63 47 -7 7 -17 13 -22 13 -5 0 -15
6 -22 13 -7 7 -34 27 -60 45 -25 18 -52 38 -60 44 -7 7 -31 25 -53 40 -69 47
-128 114 -128 145 0 45 25 86 68 110 36 20 64 28 170 48 34 7 306 7 345 1 24
-4 76 -9 221 -21 l65 -6 0 630 c-1 346 -3 631 -6 634 -3 3 -25 7 -50 10 -25 4
-63 8 -85 11 -94 12 -224 27 -280 31 -89 7 -187 17 -210 21 -46 9 -550 25
-558 18z m391 -648 c6 -4 37 -7 67 -7 41 -1 58 -5 62 -16 5 -13 8 -108 4 -151
-1 -10 -21 -11 -93 -5 -181 16 -529 9 -618 -11 -14 -4 -36 -8 -50 -11 -47 -8
-143 -45 -187 -71 -62 -36 -135 -115 -167 -179 -14 -30 -27 -57 -27 -60 -1 -2
-7 -28 -14 -57 -32 -141 5 -282 112 -421 112 -146 233 -261 458 -437 39 -30
72 -57 75 -60 3 -3 50 -39 105 -80 55 -41 105 -79 111 -85 6 -5 26 -21 44 -35
40 -30 140 -110 156 -125 6 -5 40 -35 75 -65 81 -70 157 -146 206 -207 21 -27
41 -50 44 -53 3 -3 24 -30 46 -60 103 -140 146 -267 147 -435 0 -72 -16 -210
-24 -210 -1 0 -3 -10 -6 -22 -7 -38 -50 -126 -88 -178 -37 -51 -155 -175 -166
-175 -4 0 -20 -11 -36 -25 -16 -14 -38 -28 -49 -31 -11 -4 -22 -10 -25 -14 -6
-10 -182 -88 -213 -94 -12 -3 -31 -7 -42 -10 -74 -20 -144 -37 -170 -40 -16
-3 -46 -7 -65 -11 -120 -19 -352 -25 -495 -11 -33 3 -98 8 -145 11 -47 4 -101
9 -120 11 -19 2 -57 6 -85 9 -100 10 -168 24 -175 35 -3 6 -6 45 -5 87 1 88
-10 82 105 64 70 -10 152 -21 215 -27 22 -2 74 -7 115 -11 92 -10 457 -10 525
-1 138 19 172 26 281 63 243 81 392 225 443 430 18 70 22 179 10 255 -13 87
-82 226 -155 315 -69 83 -222 235 -280 279 -23 17 -90 69 -150 116 -60 46
-113 88 -119 92 -5 4 -29 23 -52 40 -23 18 -63 49 -89 68 -26 19 -52 40 -58
45 -6 6 -38 31 -71 57 -33 25 -72 56 -86 69 -14 13 -52 47 -85 74 -168 142
-296 294 -374 444 -35 67 -38 75 -47 120 -2 14 -6 28 -9 32 -7 12 -6 168 2
214 8 50 12 70 14 70 1 0 3 11 6 24 10 53 80 165 142 227 35 35 68 64 72 64 5
0 15 6 22 13 23 21 161 84 238 108 83 25 80 24 130 33 19 3 45 8 57 10 12 3
53 8 90 11 37 4 69 8 70 9 7 6 381 -1 391 -8z"/>
<path d="M3748 13226 c-2 -12 -3 -1029 -2 -2261 l0 -2240 1625 -1 1624 -1 0
591 0 591 -736 3 -735 2 0 1668 0 1667 -886 1 -886 0 -4 -20z m997 -525 c7 -1
10 -553 10 -1636 0 -1635 0 -1635 20 -1636 11 0 414 -1 895 -2 l875 -2 0 -80
0 -80 -997 0 -998 0 -1 25 c-5 132 -3 3397 2 3405 6 8 133 12 194 6z"/>
<path d="M11646 13240 c-2 -3 -3 -269 -3 -592 l0 -588 121 0 c67 0 288 -2 491
-3 l370 -2 0 -1666 0 -1666 881 0 880 0 -1 1656 c0 911 1 1661 3 1668 3 9 115
12 475 12 260 0 480 0 490 1 16 0 17 35 17 593 l0 593 -1861 0 c-1023 0 -1862
-3 -1863 -6z m3105 -565 c1 -16 2 -48 3 -70 1 -22 0 -45 -2 -52 -3 -9 -133
-12 -520 -12 -284 0 -541 0 -569 -1 l-53 0 -2 -1637 -3 -1638 -101 0 -101 0 1
1610 c1 885 -1 1623 -4 1639 l-5 28 -568 -1 c-537 -1 -567 -1 -568 16 0 10 -1
46 -2 80 -2 55 0 63 18 65 11 2 572 3 1247 3 l1228 0 1 -30z"/>
<path d="M15650 10984 l0 -2261 850 0 c468 0 850 2 851 6 1 3 2 380 3 836 l1
830 475 1 476 0 0 -835 0 -836 856 -1 856 -1 -2 2261 -1 2261 -852 1 c-765 0
-853 -1 -854 -15 -1 -9 -2 -351 -3 -761 0 -410 -4 -749 -8 -755 -4 -6 -167 -9
-460 -8 -249 0 -460 2 -468 2 -14 1 -16 81 -15 749 0 411 -1 756 -3 768 l-4
20 -849 0 -849 0 0 -2262z m996 1717 c8 -1 11 -215 12 -773 0 -425 1 -775 1
-778 1 -3 529 -6 1174 -5 l1172 0 3 774 c1 444 6 777 11 780 7 5 142 6 187 2
9 -1 11 -451 10 -1718 l-1 -1718 -90 -1 c-49 0 -96 2 -102 4 -10 3 -13 184
-13 858 l0 854 -22 0 c-13 1 -176 0 -363 0 -187 -1 -347 -1 -355 -1 -8 0 -224
0 -480 0 -256 0 -472 0 -480 0 -8 0 -158 2 -332 3 l-318 3 -1 -30 c0 -16 -1
-402 -1 -857 0 -757 -2 -827 -17 -830 -9 -2 -54 -4 -101 -3 l-85 0 -3 1714
c-1 1019 2 1717 7 1720 7 5 142 6 187 2z"/>
<path d="M9627 11694 c-1 -2 -45 -5 -97 -8 -52 -3 -95 -6 -95 -6 0 -2 -25 -6
-125 -20 -47 -7 -94 -14 -105 -16 -48 -8 -204 -44 -248 -58 -26 -8 -49 -14
-50 -14 -3 -1 -15 -5 -102 -32 -156 -48 -398 -156 -565 -253 -111 -64 -263
-166 -273 -183 -4 -8 -13 -14 -19 -14 -11 0 -121 -89 -144 -117 -6 -7 -14 -13
-17 -13 -9 0 -179 -173 -230 -235 -27 -33 -53 -62 -56 -65 -7 -5 -57 -75 -113
-155 -140 -205 -290 -542 -323 -730 -2 -11 -7 -31 -10 -45 -6 -25 -11 -54 -20
-112 -24 -163 -24 -410 -1 -578 17 -116 18 -120 41 -210 49 -192 195 -519 296
-662 11 -14 19 -31 19 -37 0 -6 4 -11 10 -11 5 0 15 -11 22 -24 25 -46 154
-202 229 -276 90 -88 225 -210 233 -210 3 0 18 -12 33 -26 34 -31 204 -152
253 -179 19 -11 37 -22 40 -25 21 -21 295 -154 405 -197 130 -51 198 -77 210
-79 6 -1 57 -16 115 -34 110 -33 250 -64 360 -80 36 -6 76 -12 90 -15 134 -25
744 -25 840 0 8 2 40 7 70 10 57 6 190 33 295 60 33 9 70 18 82 20 12 3 33 9
45 14 13 5 25 9 28 9 6 1 8 1 110 38 41 14 92 31 113 37 20 6 37 15 37 19 0 4
7 8 16 8 28 0 244 103 361 172 45 26 86 48 92 48 5 0 11 4 13 8 2 5 30 26 63
47 74 49 59 38 184 137 168 132 360 334 471 492 14 20 31 44 37 54 74 102 213
361 213 395 0 7 4 17 9 23 9 9 68 179 62 179 -1 0 3 13 9 30 12 31 34 131 51
225 27 151 29 440 5 600 -2 14 -7 45 -11 70 -17 113 -54 253 -96 365 -36 98
-168 366 -190 385 -3 3 -16 23 -29 45 -24 41 -29 47 -106 150 -106 141 -346
389 -425 440 -18 11 -96 69 -119 88 -21 17 -185 120 -240 150 -149 83 -468
227 -535 242 -5 1 -17 5 -25 8 -15 6 -149 45 -179 53 -9 2 -35 8 -59 14 -23 5
-59 13 -80 16 -20 3 -41 8 -46 11 -4 3 -20 7 -35 8 -14 2 -57 8 -96 14 -38 6
-92 13 -120 16 -27 4 -68 8 -90 11 -47 6 -483 13 -488 8z m458 -648 c17 -3 55
-8 85 -12 30 -3 57 -7 61 -9 3 -2 28 -7 55 -11 27 -3 52 -8 56 -11 5 -2 18 -6
30 -9 53 -10 67 -14 148 -38 47 -14 94 -30 105 -35 11 -5 36 -15 55 -22 85
-30 330 -157 370 -192 11 -9 23 -17 26 -17 4 0 49 -32 102 -72 105 -80 240
-209 323 -308 30 -36 56 -67 59 -70 3 -3 11 -17 19 -32 8 -15 21 -36 30 -46
19 -21 34 -47 75 -127 170 -330 219 -687 142 -1030 -20 -90 -28 -119 -51 -180
-33 -87 -59 -146 -92 -210 -27 -52 -103 -176 -113 -185 -3 -3 -25 -32 -49 -65
-83 -112 -237 -256 -416 -390 -35 -26 -96 -65 -101 -65 -3 0 -18 -8 -32 -19
-83 -58 -369 -182 -479 -206 -10 -2 -34 -9 -53 -15 -41 -12 -200 -47 -250 -54
-84 -12 -129 -17 -185 -21 -74 -6 -326 -6 -380 0 -22 2 -69 7 -105 10 -36 4
-67 8 -71 10 -3 2 -28 7 -55 11 -27 3 -92 17 -144 30 -52 14 -102 26 -110 28
-8 2 -35 12 -60 21 -25 9 -56 19 -70 22 -14 3 -29 9 -35 13 -5 4 -37 17 -70
30 -66 26 -261 124 -285 144 -8 6 -27 18 -42 26 -16 7 -28 17 -28 22 0 4 -5 8
-10 8 -10 0 -84 53 -149 105 -34 27 -220 212 -251 250 -14 17 -36 46 -50 65
-13 19 -30 41 -37 48 -6 6 -15 21 -18 32 -3 11 -11 20 -16 20 -5 0 -9 5 -9 11
0 6 -8 23 -18 37 -76 109 -174 358 -196 497 -2 11 -6 36 -10 55 -3 19 -8 49
-11 65 -6 36 -6 275 0 325 8 61 13 94 20 134 10 58 62 229 88 289 36 85 118
240 138 263 10 11 19 24 19 28 0 4 6 13 13 21 22 24 47 55 47 60 0 15 237 257
300 305 263 205 600 363 905 426 11 2 31 7 45 9 42 9 128 21 220 31 30 4 57 8
58 9 6 5 424 -4 457 -9z"/>
<path d="M9696 10883 c-1 -1 -33 -5 -71 -8 -132 -12 -251 -31 -317 -51 -9 -3
-27 -7 -40 -10 -13 -3 -27 -7 -33 -8 -5 -2 -25 -7 -43 -11 -18 -4 -35 -12 -38
-16 -3 -5 -12 -9 -21 -9 -23 0 -252 -99 -288 -124 -16 -11 -32 -20 -35 -18 -3
1 -59 -32 -125 -75 -186 -122 -409 -352 -522 -538 -90 -151 -150 -327 -179
-525 -8 -55 -13 -252 -7 -263 3 -4 6 -31 8 -60 10 -159 75 -351 178 -527 28
-47 54 -86 59 -88 4 -2 8 -10 8 -18 0 -8 3 -14 8 -14 4 0 24 -24 45 -54 80
-112 288 -295 457 -403 153 -98 443 -221 560 -237 9 -1 21 -5 28 -10 6 -4 12
-5 12 -2 0 2 15 0 33 -5 154 -45 512 -57 752 -24 22 3 54 8 72 10 18 2 51 9
75 16 24 6 54 13 68 16 32 5 179 50 205 63 11 5 45 19 75 31 107 44 294 150
405 231 43 31 158 130 196 167 38 38 141 160 167 196 58 82 152 250 152 271 0
8 5 14 12 14 6 0 9 3 5 6 -3 3 3 25 13 49 19 44 53 167 66 240 24 131 22 335
-5 485 -18 98 -38 168 -73 250 -30 72 -104 213 -125 240 -7 8 -40 53 -74 98
-72 99 -210 241 -294 303 -33 24 -62 46 -65 49 -3 3 -54 35 -115 71 -111 67
-228 125 -300 150 -22 8 -43 18 -46 22 -3 5 -10 9 -15 8 -7 0 -58 14 -129 36
-5 2 -39 10 -75 18 -36 9 -72 17 -80 19 -32 8 -168 26 -235 32 -69 6 -305 11
-309 7z m252 -617 c34 -3 72 -8 85 -11 12 -3 33 -7 47 -9 133 -25 289 -87 406
-161 32 -21 61 -40 64 -44 3 -3 21 -18 40 -32 153 -114 287 -326 326 -513 78
-379 -121 -767 -501 -975 -51 -28 -166 -77 -200 -85 -5 -2 -28 -8 -50 -14
-153 -43 -373 -59 -515 -37 -30 5 -62 9 -70 10 -8 0 -19 3 -25 7 -5 3 -27 9
-47 12 -54 8 -150 43 -245 86 -158 74 -295 185 -405 330 -33 44 -108 190 -108
211 0 8 -4 19 -9 25 -6 5 -12 21 -15 36 -2 15 -7 32 -10 36 -10 16 -20 126
-19 207 3 197 89 405 233 564 67 73 237 201 267 201 7 0 13 4 13 9 0 8 80 46
145 69 17 5 39 13 50 18 22 8 18 7 100 28 77 19 112 25 210 32 44 4 81 7 82 8
3 2 78 -2 151 -8z"/>
</g>
</svg>
