<svg xmlns="http://www.w3.org/2000/svg" version="1.0" viewBox="0 0 2016 2016"><path d="M163.7 680.6c-.1.1-4.7.5-10.2.8-13.8.9-21 1.8-32.5 4.1-1.4.3-3.8.8-5.5 1.1-3.8.7-19.6 5.1-22.7 6.3-2.5 1-6.2 2.2-6.5 2.2-.5 0-11.9 5.1-18.3 8.2-17.4 8.4-36.7 23.9-47 37.6-8 10.6-14.2 23.5-18 37.1-.7 2.5-1.6 5.7-2 7.2-1.2 3.9-1.2 43.7-.1 48.9.5 2.4 1.2 5.5 1.4 6.9.7 3.5 5.5 16.1 6.8 17.7.6.7.9 1.3.5 1.3-.9 0 7.2 14.1 12.4 21.5 10.1 14.4 33.9 37.2 50.5 48.6 2.8 1.9 5.2 3.6 5.5 3.9.3.3 7.9 5.5 17 11.5 29.9 19.7 32.9 21.7 35.1 23.6 1.2 1 2.5 1.9 2.8 1.9.3 0 2.6 1.8 5.1 4 2.4 2.2 4.8 4 5.3 4 .4 0 .6.4.3.9s0 1.1.8 1.4c2.1.8 6.4 8.7 6.9 12.7.6 4.9-1.7 11.7-4.9 15.1-2.7 2.8-9.9 6.7-13.7 7.5-11 2.1-36.3 2.1-55.7-.1-9.1-1-15.6-1.7-17-1.9-.8-.2-4-.6-7-1.1-3-.4-6.4-.9-7.5-1.1-2.1-.4-4.1-.8-14-2.5-3.3-.6-6.9-1.2-8-1.4-1.1-.2-4.7-.9-8-1.5s-8.1-1.7-10.6-2.5l-4.6-1.3v67.5c0 65.5.1 67.4 2 68.4 1 .6 3 1.3 4.4 1.5 1.4.3 5.4 1.1 8.9 2 3.5.8 6.7 1.3 7.1 1.3.4-.1 1.5.1 2.3.4 1.6.6 10.6 2.1 26 4.2 7.7 1 9.8 1.3 16 2 3 .3 6.6.8 8 1.1 1.4.2 5.2.7 8.5 1 3.3.3 7.6.7 9.5.9 19.4 2.2 74.1 2.1 91.5 0 1.7-.2 5.4-.6 8.3-.9 4.6-.5 11.4-1.6 19.7-3.2 12.6-2.5 21.8-5.2 37-11.2 4.5-1.8 23-10.6 26-12.5 17.6-10.8 35.7-28.3 44.2-42.7 4.2-7.1 7.3-13.1 7.3-14 0-.6.9-2.9 1.9-5.3 3-6.5 6.9-20.3 7.7-27.2.3-2.2.9-6.5 1.3-9.5.8-6.6.7-25.3-.3-33-1.1-8.2-4.6-22.9-5.7-23.6-.5-.3-.7-.9-.4-1.3.7-1.3-10.9-23.8-17.1-33.1-13.1-19.7-31.7-38.3-55.3-55.5-5.3-3.8-10.2-7.5-10.9-8.2-.7-.7-1.7-1.3-2.1-1.3-.4 0-1.6-.8-2.7-1.8-1.1-.9-4.2-3.3-6.9-5.2-2.8-1.9-5.6-4-6.3-4.7-.7-.7-1.7-1.3-2.2-1.3-.5 0-1.5-.6-2.2-1.3-.7-.7-3.4-2.7-6-4.5-2.5-1.8-5.2-3.8-6-4.4-.7-.7-3.1-2.5-5.3-4-6.9-4.7-12.8-11.4-12.8-14.5 0-4.5 2.5-8.6 6.8-11 3.6-2 6.4-2.8 17-4.8 3.4-.7 30.6-.7 34.5-.1 2.4.4 7.6.9 22.1 2.1l6.5.6v-63c-.1-34.6-.3-63.1-.6-63.4-.3-.3-2.5-.7-5-1-2.5-.4-6.3-.8-8.5-1.1-9.4-1.2-22.4-2.7-28-3.1-8.9-.7-18.7-1.7-21-2.1-4.6-.9-55-2.5-55.8-1.8zm39.1 64.8c.6.4 3.7.7 6.7.7 4.1.1 5.8.5 6.2 1.6.5 1.3.8 10.8.4 15.1-.1 1-2.1 1.1-9.3.5-18.1-1.6-52.9-.9-61.8 1.1-1.4.4-3.6.8-5 1.1-4.7.8-14.3 4.5-18.7 7.1-6.2 3.6-13.5 11.5-16.7 17.9-1.4 3-2.7 5.7-2.7 6-.1.2-.7 2.8-1.4 5.7-3.2 14.1.5 28.2 11.2 42.1 11.2 14.6 23.3 26.1 45.8 43.7 3.9 3 7.2 5.7 7.5 6 .3.3 5 3.9 10.5 8s10.5 7.9 11.1 8.5c.6.5 2.6 2.1 4.4 3.5 4 3 14 11 15.6 12.5.6.5 4 3.5 7.5 6.5 8.1 7 15.7 14.6 20.6 20.7 2.1 2.7 4.1 5 4.4 5.3.3.3 2.4 3 4.6 6 10.3 14 14.6 26.7 14.7 43.5 0 7.2-1.6 21-2.4 21-.1 0-.3 1-.6 2.2-.7 3.8-5 12.6-8.8 17.8-3.7 5.1-15.5 17.5-16.6 17.5-.4 0-2 1.1-3.6 2.5s-3.8 2.8-4.9 3.1c-1.1.4-2.2 1-2.5 1.4-.6 1-18.2 8.8-21.3 9.4-1.2.3-3.1.7-4.2 1-7.4 2-14.4 3.7-17 4-1.6.3-4.6.7-6.5 1.1-12 1.9-35.2 2.5-49.5 1.1-3.3-.3-9.8-.8-14.5-1.1-4.7-.4-10.1-.9-12-1.1-1.9-.2-5.7-.6-8.5-.9-10-1-16.8-2.4-17.5-3.5-.3-.6-.6-4.5-.5-8.7.1-8.8-1-8.2 10.5-6.4 7 1 15.2 2.1 21.5 2.7 2.2.2 7.4.7 11.5 1.1 9.2 1 45.7 1 52.5.1 13.8-1.9 17.2-2.6 28.1-6.3 24.3-8.1 39.2-22.5 44.3-43 1.8-7 2.2-17.9 1-25.5-1.3-8.7-8.2-22.6-15.5-31.5-6.9-8.3-22.2-23.5-28-27.9-2.3-1.7-9-6.9-15-11.6-6-4.6-11.3-8.8-11.9-9.2-.5-.4-2.9-2.3-5.2-4-2.3-1.8-6.3-4.9-8.9-6.8-2.6-1.9-5.2-4-5.8-4.5-.6-.6-3.8-3.1-7.1-5.7-3.3-2.5-7.2-5.6-8.6-6.9-1.4-1.3-5.2-4.7-8.5-7.4-16.8-14.2-29.6-29.4-37.4-44.4-3.5-6.7-3.8-7.5-4.7-12-.2-1.4-.6-2.8-.9-3.2-.7-1.2-.6-16.8.2-21.4.8-5 1.2-7 1.4-7 .1 0 .3-1.1.6-2.4 1-5.3 8-16.5 14.2-22.7 3.5-3.5 6.8-6.4 7.2-6.4.5 0 1.5-.6 2.2-1.3 2.3-2.1 16.1-8.4 23.8-10.8 8.3-2.5 8-2.4 13-3.3 1.9-.3 4.5-.8 5.7-1 1.2-.3 5.3-.8 9-1.1 3.7-.4 6.9-.8 7-.9.7-.6 38.1.1 39.1.8zM374.8 693.4c-.2 1.2-.3 102.9-.2 226.1v224l162.5.1 162.4.1v-118.2l-73.6-.3-73.5-.2V691.5l-88.6-.1h-88.6l-.4 2zm99.7 52.5c.7.1 1 55.3 1 163.6 0 163.5 0 163.5 2 163.6 1.1 0 41.4.1 89.5.2l87.5.2v16H455l-.1-2.5c-.5-13.2-.3-339.7.2-340.5.6-.8 13.3-1.2 19.4-.6zM1164.6 692c-.2.3-.3 26.9-.3 59.2V810h12.1c6.7 0 28.8.2 49.1.3l37 .2v333.2h176.1l-.1-165.6c0-91.1.1-166.1.3-166.8.3-.9 11.5-1.2 47.5-1.2 26 0 48 0 49-.1 1.6 0 1.7-3.5 1.7-59.3v-59.3h-186.1c-102.3 0-186.2.3-186.3.6zm310.5 56.5c.1 1.6.2 4.8.3 7 .1 2.2 0 4.5-.2 5.2-.3.9-13.3 1.2-52 1.2-28.4 0-54.1 0-56.9.1h-5.3l-.2 163.7-.3 163.8h-20.2l.1-161c.1-88.5-.1-162.3-.4-163.9l-.5-2.8-56.8.1c-53.7.1-56.7.1-56.8-1.6 0-1-.1-4.6-.2-8-.2-5.5 0-6.3 1.8-6.5 1.1-.2 57.2-.3 124.7-.3H1475l.1 3zM1565 917.6v226.1h85c46.8 0 85-.2 85.1-.6.1-.3.2-38 .3-83.6l.1-83 47.5-.1h47.6v167.1l85.6.1 85.6.1-.2-226.1-.1-226.1-85.2-.1c-76.5 0-85.3.1-85.4 1.5-.1.9-.2 35.1-.3 76.1 0 41-.4 74.9-.8 75.5-.4.6-16.7.9-46 .8-24.9 0-46-.2-46.8-.2-1.4-.1-1.6-8.1-1.5-74.9 0-41.1-.1-75.6-.3-76.8l-.4-2H1565v226.2zm99.6-171.7c.8.1 1.1 21.5 1.2 77.3 0 42.5.1 77.5.1 77.8.1.3 52.9.6 117.4.5h117.2l.3-77.4c.1-44.4.6-77.7 1.1-78 .7-.5 14.2-.6 18.7-.2.9.1 1.1 45.1 1 171.8l-.1 171.8-9 .1c-4.9 0-9.6-.2-10.2-.4-1-.3-1.3-18.4-1.3-85.8V918h-2.2c-1.3-.1-17.6 0-36.3 0-18.7.1-34.7.1-35.5.1h-96c-.8 0-15.8-.2-33.2-.3l-31.8-.3-.1 3c0 1.6-.1 40.2-.1 85.7 0 75.7-.2 82.7-1.7 83-.9.2-5.4.4-10.1.3h-8.5l-.3-171.4c-.1-101.9.2-171.7.7-172 .7-.5 14.2-.6 18.7-.2z"/><path d="M962.7 846.6c-.1.2-4.5.5-9.7.8-5.2.3-9.5.6-9.5.6 0 .2-2.5.6-12.5 2-4.7.7-9.4 1.4-10.5 1.6-4.8.8-20.4 4.4-24.8 5.8-2.6.8-4.9 1.4-5 1.4-.3.1-1.5.5-10.2 3.2-15.6 4.8-39.8 15.6-56.5 25.3-11.1 6.4-26.3 16.6-27.3 18.3-.4.8-1.3 1.4-1.9 1.4-1.1 0-12.1 8.9-14.4 11.7-.6.7-1.4 1.3-1.7 1.3-.9 0-17.9 17.3-23 23.5-2.7 3.3-5.3 6.2-5.6 6.5-.7.5-5.7 7.5-11.3 15.5-14 20.5-29 54.2-32.3 73-.2 1.1-.7 3.1-1 4.5-.6 2.5-1.1 5.4-2 11.2-2.4 16.3-2.4 41-.1 57.8 1.7 11.6 1.8 12 4.1 21 4.9 19.2 19.5 51.9 29.6 66.2 1.1 1.4 1.9 3.1 1.9 3.7 0 .6.4 1.1 1 1.1.5 0 1.5 1.1 2.2 2.4 2.5 4.6 15.4 20.2 22.9 27.6 9 8.8 22.5 21 23.3 21 .3 0 1.8 1.2 3.3 2.6 3.4 3.1 20.4 15.2 25.3 17.9 1.9 1.1 3.7 2.2 4 2.5 2.1 2.1 29.5 15.4 40.5 19.7 13 5.1 19.8 7.7 21 7.9.6.1 5.7 1.6 11.5 3.4 11 3.3 25 6.4 36 8 3.6.6 7.6 1.2 9 1.5 13.4 2.5 74.4 2.5 84 0 .8-.2 4-.7 7-1 5.7-.6 19-3.3 29.5-6 3.3-.9 7-1.8 8.2-2 1.2-.3 3.3-.9 4.5-1.4 1.3-.5 2.5-.9 2.8-.9.6-.1.8-.1 11-3.8 4.1-1.4 9.2-3.1 11.3-3.7 2-.6 3.7-1.5 3.7-1.9 0-.4.7-.8 1.6-.8 2.8 0 24.4-10.3 36.1-17.2 4.5-2.6 8.6-4.8 9.2-4.8.5 0 1.1-.4 1.3-.8.2-.5 3-2.6 6.3-4.7 7.4-4.9 5.9-3.8 18.4-13.7 16.8-13.2 36-33.4 47.1-49.2 1.4-2 3.1-4.4 3.7-5.4 7.4-10.2 21.3-36.1 21.3-39.5 0-.7.4-1.7.9-2.3.9-.9 6.8-17.9 6.2-17.9-.1 0 .3-1.3.9-3 1.2-3.1 3.4-13.1 5.1-22.5 2.7-15.1 2.9-44 .5-60-.2-1.4-.7-4.5-1.1-7-1.7-11.3-5.4-25.3-9.6-36.5-3.6-9.8-16.8-36.6-19-38.5-.3-.3-1.6-2.3-2.9-4.5-2.4-4.1-2.9-4.7-10.6-15-10.6-14.1-34.6-38.9-42.5-44-1.8-1.1-9.6-6.9-11.9-8.8-2.1-1.7-18.5-12-24-15-14.9-8.3-46.8-22.7-53.5-24.2-.5-.1-1.7-.5-2.5-.8-1.5-.6-14.9-4.5-17.9-5.3-.9-.2-3.5-.8-5.9-1.4-2.3-.5-5.9-1.3-8-1.6-2-.3-4.1-.8-4.6-1.1-.4-.3-2-.7-3.5-.8-1.4-.2-5.7-.8-9.6-1.4-3.8-.6-9.2-1.3-12-1.6-2.7-.4-6.8-.8-9-1.1-4.7-.6-48.3-1.3-48.8-.8zm45.8 64.8c1.7.3 5.5.8 8.5 1.2 3 .3 5.7.7 6.1.9.3.2 2.8.7 5.5 1.1 2.7.3 5.2.8 5.6 1.1.5.2 1.8.6 3 .9 5.3 1 6.7 1.4 14.8 3.8 4.7 1.4 9.4 3 10.5 3.5 1.1.5 3.6 1.5 5.5 2.2 8.5 3 33 15.7 37 19.2 1.1.9 2.3 1.7 2.6 1.7.4 0 4.9 3.2 10.2 7.2 10.5 8 24 20.9 32.3 30.8 3 3.6 5.6 6.7 5.9 7 .3.3 1.1 1.7 1.9 3.2.8 1.5 2.1 3.6 3 4.6 1.9 2.1 3.4 4.7 7.5 12.7 17 33 21.9 68.7 14.2 103-2 9-2.8 11.9-5.1 18-3.3 8.7-5.9 14.6-9.2 21-2.7 5.2-10.3 17.6-11.3 18.5-.3.3-2.5 3.2-4.9 6.5-8.3 11.2-23.7 25.6-41.6 39-3.5 2.6-9.6 6.5-10.1 6.5-.3 0-1.8.8-3.2 1.9-8.3 5.8-36.9 18.2-47.9 20.6-1 .2-3.4.9-5.3 1.5-4.1 1.2-20 4.7-25 5.4-8.4 1.2-12.9 1.7-18.5 2.1-7.4.6-32.6.6-38 0-2.2-.2-6.9-.7-10.5-1-3.6-.4-6.7-.8-7.1-1-.3-.2-2.8-.7-5.5-1.1-2.7-.3-9.2-1.7-14.4-3-5.2-1.4-10.2-2.6-11-2.8-.8-.2-3.5-1.2-6-2.1-2.5-.9-5.6-1.9-7-2.2-1.4-.3-2.9-.9-3.5-1.3-.5-.4-3.7-1.7-7-3-6.6-2.6-26.1-12.4-28.5-14.4-.8-.6-2.7-1.8-4.2-2.6-1.6-.7-2.8-1.7-2.8-2.2 0-.4-.5-.8-1-.8-1 0-8.4-5.3-14.9-10.5-3.4-2.7-22-21.2-25.1-25-1.4-1.7-3.6-4.6-5-6.5-1.3-1.9-3-4.1-3.7-4.8-.6-.6-1.5-2.1-1.8-3.2-.3-1.1-1.1-2-1.6-2s-.9-.5-.9-1.1c0-.6-.8-2.3-1.8-3.7-7.6-10.9-17.4-35.8-19.6-49.7-.2-1.1-.6-3.6-1-5.5-.3-1.9-.8-4.9-1.1-6.5-.6-3.6-.6-27.5 0-32.5.8-6.1 1.3-9.4 2-13.4 1-5.8 6.2-22.9 8.8-28.9 3.6-8.5 11.8-24 13.8-26.3 1-1.1 1.9-2.4 1.9-2.8 0-.4.6-1.3 1.3-2.1 2.2-2.4 4.7-5.5 4.7-6 0-1.5 23.7-25.7 30-30.5 26.3-20.5 60-36.3 90.5-42.6 1.1-.2 3.1-.7 4.5-.9 4.2-.9 12.8-2.1 22-3.1 3-.4 5.7-.8 5.8-.9.6-.5 42.4.4 45.7.9z"/><path d="M969.6 927.7c-.1.1-3.3.5-7.1.8-13.2 1.2-25.1 3.1-31.7 5.1-.9.3-2.7.7-4 1-1.3.3-2.7.7-3.3.8-.5.2-2.5.7-4.3 1.1-1.8.4-3.5 1.2-3.8 1.6-.3.5-1.2.9-2.1.9-2.3 0-25.2 9.9-28.8 12.4-1.6 1.1-3.2 2-3.5 1.8-.3-.1-5.9 3.2-12.5 7.5-18.6 12.2-40.9 35.2-52.2 53.8-9 15.1-15 32.7-17.9 52.5-.8 5.5-1.3 25.2-.7 26.3.3.4.6 3.1.8 6 1 15.9 7.5 35.1 17.8 52.7 2.8 4.7 5.4 8.6 5.9 8.8.4.2.8 1 .8 1.8s.3 1.4.8 1.4c.4 0 2.4 2.4 4.5 5.4 8 11.2 28.8 29.5 45.7 40.3 15.3 9.8 44.3 22.1 56 23.7.9.1 2.1.5 2.8 1 .6.4 1.2.5 1.2.2 0-.2 1.5 0 3.3.5 15.4 4.5 51.2 5.7 75.2 2.4 2.2-.3 5.4-.8 7.2-1 1.8-.2 5.1-.9 7.5-1.6 2.4-.6 5.4-1.3 6.8-1.6 3.2-.5 17.9-5 20.5-6.3 1.1-.5 4.5-1.9 7.5-3.1 10.7-4.4 29.4-15 40.5-23.1 4.3-3.1 15.8-13 19.6-16.7 3.8-3.8 14.1-16 16.7-19.6 5.8-8.2 15.2-25 15.2-27.1 0-.8.5-1.4 1.2-1.4.6 0 .9-.3.5-.6-.3-.3.3-2.5 1.3-4.9 1.9-4.4 5.3-16.7 6.6-24 2.4-13.1 2.2-33.5-.5-48.5-1.8-9.8-3.8-16.8-7.3-25-3-7.2-10.4-21.3-12.5-24-.7-.8-4-5.3-7.4-9.8-7.2-9.9-21-24.1-29.4-30.3-3.3-2.4-6.2-4.6-6.5-4.9-.3-.3-5.4-3.5-11.5-7.1-11.1-6.7-22.8-12.5-30-15-2.2-.8-4.3-1.8-4.6-2.2-.3-.5-1-.9-1.5-.8-.7 0-5.8-1.4-12.9-3.6-.5-.2-3.9-1-7.5-1.8-3.6-.9-7.2-1.7-8-1.9-3.2-.8-16.8-2.6-23.5-3.2-6.9-.6-30.5-1.1-30.9-.7zm25.2 61.7c3.4.3 7.2.8 8.5 1.1 1.2.3 3.3.7 4.7.9 13.3 2.5 28.9 8.7 40.6 16.1 3.2 2.1 6.1 4 6.4 4.4.3.3 2.1 1.8 4 3.2 15.3 11.4 28.7 32.6 32.6 51.3 7.8 37.9-12.1 76.7-50.1 97.5-5.1 2.8-16.6 7.7-20 8.5-.5.2-2.8.8-5 1.4-15.3 4.3-37.3 5.9-51.5 3.7-3-.5-6.2-.9-7-1-.8 0-1.9-.3-2.5-.7-.5-.3-2.7-.9-4.7-1.2-5.4-.8-15-4.3-24.5-8.6-15.8-7.4-29.5-18.5-40.5-33-3.3-4.4-10.8-19-10.8-21.1 0-.8-.4-1.9-.9-2.5-.6-.5-1.2-2.1-1.5-3.6-.2-1.5-.7-3.2-1-3.6-1-1.6-2-12.6-1.9-20.7.3-19.7 8.9-40.5 23.3-56.4 6.7-7.3 23.7-20.1 26.7-20.1.7 0 1.3-.4 1.3-.9 0-.8 8-4.6 14.5-6.9 1.7-.5 3.9-1.3 5-1.8 2.2-.8 1.8-.7 10-2.8 7.7-1.9 11.2-2.5 21-3.2 4.4-.4 8.1-.7 8.2-.8.3-.2 7.8.2 15.1.8z"/></svg>
